<svg version="1" xmlns="http://www.w3.org/2000/svg" width="1365.333" height="1365.333" viewBox="0 0 1024.000000 1024.000000"><path d="M488 12.7c-63.3 3-128.1 19-186.2 45.9-91 42.1-168.9 112.5-220 198.9-38.1 64.6-59.7 131.8-68 211.5-1.9 18.9-1.6 70.5.6 91.5 7.8 75.6 31.7 147.4 70.1 211.4 10.7 17.8 34 51.7 45.7 66.4 35.7 45 78.8 83.8 125.8 113.3 54.7 34.3 112.1 56.6 177.5 69l15 2.9h147l15-2.9c102.8-19.5 192.1-66.3 263.9-138.2 84-83.9 134.4-193.1 144.6-313.4 1.4-16.1 1.4-61.9 0-78-4.3-50-15.9-100-33.4-144.3-31.8-80-69.6-138.3-124.7-192.2-50.1-49.1-108.8-86.2-176-111.3C624.3 20.5 553.7 9.5 488 12.7zm116.6 235.8c67.4 8.9 122.9 48.7 151.9 109 12.6 26.1 18.1 48.7 19.2 78 2.5 70.3-29 132.5-86.9 171.4-25 16.8-56.5 28.1-87.8 31.3-12.7 1.3-12.8-.1.6 14.4 5 5.4 17.1 18.7 26.9 29.4 22.4 24.6 24.5 26.8 38.6 42 6.4 6.9 14 15.2 17 18.6 8.7 9.7 55.7 61.1 64.3 70.4 21.1 22.6 35.6 38.6 35.6 39.4 0 .4-27.3.5-60.7.4-69.3-.4-65.2.1-84.8-9.7-12.9-6.5-17.6-10.4-33.7-28.6-7.3-8.3-20.9-23.6-30.2-34-27.7-31.2-29.4-33-51.2-57.5-22.3-25.1-32.2-36.3-69.9-78.5-13.2-14.8-29.4-33-36-40.5-6.6-7.5-17.4-19.7-24-27-6.6-7.4-17.3-19.4-23.8-26.7l-11.8-13.2 122.3-.4c108.4-.2 123-.5 128.8-1.9 30.4-7.5 54.8-27.9 66.5-55.8 20.4-48.3-4.2-105.1-53.6-123.7-17.1-6.4-13.8-6.3-158.4-6.3-141.2-.1-137.6.1-153.8-5.4-26.8-9-52.9-31.2-65-55.1-2.3-4.7-10-26-13.2-36.8l-1.4-4.7h181.4c157.3 0 183 .2 193.1 1.5z"/></svg>